<?xml version="1.0" encoding="UTF-8"?>
<svg version="1.1" xmlns="http://www.w3.org/2000/svg" width="48" height="48">
<path d="M0 0 C6.16770459 3.55829111 11.24900244 9.31404517 13.40625 16.109375 C14.21139105 23.94545708 14.53085392 31.72860077 9.40625 38.109375 C4.60176361 43.15458722 0.24447945 46.71500495 -6.86328125 47.4453125 C-15.36700826 47.53906914 -21.32024832 47.25543627 -27.55859375 41.203125 C-34.0253347 34.11483635 -35.32148275 28.6342755 -35.0234375 19.171875 C-34.50869899 12.26606647 -31.4895212 7.82964491 -26.53125 3.171875 C-19.07861684 -2.26653298 -8.66159301 -2.97416146 0 0 Z " fill="#692458" transform="translate(34.59375,0.890625)"/>
<path d="M0 0 C6.16770459 3.55829111 11.24900244 9.31404517 13.40625 16.109375 C14.21139105 23.94545708 14.53085392 31.72860077 9.40625 38.109375 C4.60176361 43.15458722 0.24447945 46.71500495 -6.86328125 47.4453125 C-15.36700826 47.53906914 -21.32024832 47.25543627 -27.55859375 41.203125 C-34.0253347 34.11483635 -35.32148275 28.6342755 -35.0234375 19.171875 C-34.50869899 12.26606647 -31.4895212 7.82964491 -26.53125 3.171875 C-19.07861684 -2.26653298 -8.66159301 -2.97416146 0 0 Z M-23.59375 3.109375 C-23.59375 3.769375 -23.59375 4.429375 -23.59375 5.109375 C-24.233125 5.3775 -24.8725 5.645625 -25.53125 5.921875 C-27.92506686 6.99605252 -27.92506686 6.99605252 -28.59375 10.109375 C-29.25375 10.109375 -29.91375 10.109375 -30.59375 10.109375 C-34.17481744 16.52545416 -34.5704721 22.86244584 -33.59375 30.109375 C-32.28810002 33.4052345 -30.66891482 36.24120077 -28.59375 39.109375 C-26.61375 38.614375 -26.61375 38.614375 -24.59375 38.109375 C-24.26375 39.099375 -23.93375 40.089375 -23.59375 41.109375 C-22.60375 41.439375 -21.61375 41.769375 -20.59375 42.109375 C-20.26375 40.459375 -19.93375 38.809375 -19.59375 37.109375 C-16.59375 38.109375 -16.59375 38.109375 -14.59375 40.109375 C-13.06208832 36.02494385 -13.96293348 32.31481843 -14.59375 28.109375 C-13.27375 28.109375 -11.95375 28.109375 -10.59375 28.109375 C-10.59375 29.429375 -10.59375 30.749375 -10.59375 32.109375 C-9.93375 32.109375 -9.27375 32.109375 -8.59375 32.109375 C-8.59375 33.099375 -8.59375 34.089375 -8.59375 35.109375 C-7.27375 34.449375 -5.95375 33.789375 -4.59375 33.109375 C-4.59375 33.769375 -4.59375 34.429375 -4.59375 35.109375 C-3.60375 35.769375 -2.61375 36.429375 -1.59375 37.109375 C-0.90625 39.734375 -0.90625 39.734375 -0.59375 42.109375 C2.464202 40.37378062 5.04004989 38.72464881 7.40625 36.109375 C7.07625 35.119375 6.74625 34.129375 6.40625 33.109375 C3.43625 32.614375 3.43625 32.614375 0.40625 32.109375 C0.73625 31.449375 1.06625 30.789375 1.40625 30.109375 C1.82327122 27.1936059 1.82327122 27.1936059 1.40625 24.109375 C-0.46876931 21.73217807 -0.46876931 21.73217807 -2.59375 20.109375 C-1.27375 19.779375 0.04625 19.449375 1.40625 19.109375 C2.37372771 15.996861 2.66327664 14.62921345 1.19140625 11.65234375 C0.62292969 10.87503906 0.05445313 10.09773437 -0.53125 9.296875 C-1.09714844 8.50667969 -1.66304687 7.71648438 -2.24609375 6.90234375 C-2.69082031 6.31066406 -3.13554687 5.71898437 -3.59375 5.109375 C-1.28375 5.769375 1.02625 6.429375 3.40625 7.109375 C3.40625 7.769375 3.40625 8.429375 3.40625 9.109375 C4.06625 9.109375 4.72625 9.109375 5.40625 9.109375 C5.40625 9.769375 5.40625 10.429375 5.40625 11.109375 C4.74625 11.439375 4.08625 11.769375 3.40625 12.109375 C4.72625 12.109375 6.04625 12.109375 7.40625 12.109375 C7.40625 12.769375 7.40625 13.429375 7.40625 14.109375 C6.41625 14.439375 5.42625 14.769375 4.40625 15.109375 C5.025 15.191875 5.64375 15.274375 6.28125 15.359375 C8.40625 16.109375 8.40625 16.109375 9.65625 18.171875 C9.90375 18.81125 10.15125 19.450625 10.40625 20.109375 C11.47076649 16.38356727 11.66774685 14.65510755 9.96875 11.109375 C5.34393381 5.69495605 -0.53155791 0.59358468 -7.83984375 -0.10546875 C-13.80729981 -0.3325409 -18.15303287 0.6912785 -23.59375 3.109375 Z " fill="#B4B8C1" transform="translate(34.59375,0.890625)"/>
<path d="M0 0 C1.5 1.3125 1.5 1.3125 3 3 C3 3.99 3 4.98 3 6 C2.01 6.33 1.02 6.66 0 7 C-0.33 8.98 -0.66 10.96 -1 13 C1.8371515 14.19595537 1.8371515 14.19595537 5 15 C5.99 14.34 6.98 13.68 8 13 C8.25015873 9.41642759 8.25015873 9.41642759 8 6 C7.34 6 6.68 6 6 6 C6 4.68 6 3.36 6 2 C8.7443949 3.04097738 9.9787139 3.97284187 11.8125 6.3125 C13.18729237 9.4238722 13.00295901 10.80876679 12 14 C10.68 14.33 9.36 14.66 8 15 C8.99 15.804375 8.99 15.804375 10 16.625 C12 19 12 19 12.3125 22.125 C12 25 12 25 11 27 C12.98 27.33 14.96 27.66 17 28 C17 32 17 32 15.72265625 33.484375 C11.11111111 37 11.11111111 37 10 37 C9.71125 36.05125 9.4225 35.1025 9.125 34.125 C8.23174891 30.94788422 8.23174891 30.94788422 6 29 C4.63106761 28.94729537 4.63106761 28.94729537 2 30 C2 29.01 2 28.02 2 27 C1.34 27 0.68 27 0 27 C0 25.68 0 24.36 0 23 C-1.32 23 -2.64 23 -4 23 C-3.67 26.63 -3.34 30.26 -3 34 C-3.99 34.495 -3.99 34.495 -5 35 C-5.33 34.34 -5.66 33.68 -6 33 C-6.66 33 -7.32 33 -8 33 C-9.38232443 31.37373596 -10.71937515 29.7074998 -12 28 C-11.01 27.67 -10.02 27.34 -9 27 C-9 25.35 -9 23.7 -9 22 C-5.7 21.01 -2.4 20.02 1 19 C0.3503125 18.0409375 0.3503125 18.0409375 -0.3125 17.0625 C-2.44486476 13.19265285 -3.70640794 9.21105502 -5 5 C-6.65 5.33 -8.3 5.66 -10 6 C-10.5534764 8.07553648 -11 9.84365964 -11 12 C-11.66 12 -12.32 12 -13 12 C-13.7393623 9.33829573 -14.13195116 7.51314341 -13.4375 4.8125 C-11.38564959 2.22538427 -9.12632355 1.81556266 -6 1 C-4.68 2.32 -3.36 3.64 -2 5 C-1.34 3.35 -0.68 1.7 0 0 Z " fill="#472D68" transform="translate(24,6)"/>
<path d="M0 0 C0.19335938 0.61488281 0.38671875 1.22976562 0.5859375 1.86328125 C0.97652344 3.07564453 0.97652344 3.07564453 1.375 4.3125 C1.63023438 5.11300781 1.88546875 5.91351563 2.1484375 6.73828125 C2.98831811 9.22724528 2.98831811 9.22724528 5 12 C5 12.99 5 13.98 5 15 C1.7 15.66 -1.6 16.32 -5 17 C-5 18.65 -5 20.3 -5 22 C-5.66 22.66 -6.32 23.32 -7 24 C-6.34 24.66 -5.68 25.32 -5 26 C-7.64 26 -10.28 26 -13 26 C-13.33 24.68 -13.66 23.36 -14 22 C-12.35 21.67 -10.7 21.34 -9 21 C-10.98 21 -12.96 21 -15 21 C-17 15.25 -17 15.25 -17 13 C-13.37 13 -9.74 13 -6 13 C-5.67 12.01 -5.34 11.02 -5 10 C-5.66 9.67 -6.32 9.34 -7 9 C-8.47982709 2.85302594 -8.47982709 2.85302594 -6.875 0 C-4.28103624 -1.38344734 -2.74857743 -0.81714464 0 0 Z " fill="#8666BC" transform="translate(20,11)"/>
<path d="M0 0 C4.75 1.875 4.75 1.875 7 3 C7 3.66 7 4.32 7 5 C7.66 5 8.32 5 9 5 C9 5.66 9 6.32 9 7 C9.66 7.33 10.32 7.66 11 8 C11.309375 8.66 11.61875 9.32 11.9375 10 C12.8891846 12.34608221 12.8891846 12.34608221 16 13 C16.10841951 14.91541138 16.18578079 16.83259773 16.25 18.75 C16.29640625 19.81734375 16.3428125 20.8846875 16.390625 21.984375 C16 25 16 25 14.25 27.40625 C12 29 12 29 9.859375 29.171875 C7.90625 28.78125 5.953125 28.390625 4 28 C4.09765625 25.98177083 4.1953125 23.96354167 4.29296875 21.9453125 C4.19628906 21.30335937 4.09960938 20.66140625 4 20 C3.01 19.34 2.02 18.68 1 18 C1 17.34 1 16.68 1 16 C2.32 15.34 3.64 14.68 5 14 C4.46539219 9.45583364 2.52334518 6.74431865 0 3 C0 2.01 0 1.02 0 0 Z " fill="#654370" transform="translate(31,5)"/>
<path d="M0 0 C1.5 1.3125 1.5 1.3125 3 3 C3 3.99 3 4.98 3 6 C2.01 6.33 1.02 6.66 0 7 C-0.33 8.98 -0.66 10.96 -1 13 C1.475 13.99 1.475 13.99 4 15 C3.25 22.75 3.25 22.75 1 25 C1 24.34 1 23.68 1 23 C-0.65 23 -2.3 23 -4 23 C-3.67 26.63 -3.34 30.26 -3 34 C-3.99 34.495 -3.99 34.495 -5 35 C-5.33 34.34 -5.66 33.68 -6 33 C-6.66 33 -7.32 33 -8 33 C-9.38232443 31.37373596 -10.71937515 29.7074998 -12 28 C-11.01 27.67 -10.02 27.34 -9 27 C-9 25.35 -9 23.7 -9 22 C-5.7 21.01 -2.4 20.02 1 19 C0.3503125 18.0409375 0.3503125 18.0409375 -0.3125 17.0625 C-2.44486476 13.19265285 -3.70640794 9.21105502 -5 5 C-6.65 5.33 -8.3 5.66 -10 6 C-10.5534764 8.07553648 -11 9.84365964 -11 12 C-11.66 12 -12.32 12 -13 12 C-13.7393623 9.33829573 -14.13195116 7.51314341 -13.4375 4.8125 C-11.38564959 2.22538427 -9.12632355 1.81556266 -6 1 C-4.68 2.32 -3.36 3.64 -2 5 C-1.34 3.35 -0.68 1.7 0 0 Z " fill="#1E1125" transform="translate(24,6)"/>
<path d="M0 0 C1.32 0 2.64 0 4 0 C4 1.32 4 2.64 4 4 C4.66 4 5.32 4 6 4 C6 4.99 6 5.98 6 7 C7.98 5.68 9.96 4.36 12 3 C12 4.32 12 5.64 12 7 C12.66 7.66 13.32 8.32 14 9 C13.80833708 12.00271905 13.58037559 14.20057943 11.7890625 16.66796875 C9.32538677 18.50227753 7.60702268 18.3997858 4.5625 18.375 C3.61503906 18.38273437 2.66757812 18.39046875 1.69140625 18.3984375 C-1.39931649 17.94088493 -2.80788144 17.2076655 -5 15 C-5 14.01 -5 13.02 -5 12 C-2.03 12.495 -2.03 12.495 1 13 C1.99 11.68 2.98 10.36 4 9 C3.01 8.67 2.02 8.34 1 8 C-0.35439668 5.29120665 -0.06501451 2.99066732 0 0 Z " fill="#989E80" transform="translate(20,29)"/>
<path d="M0 0 C0.66 0 1.32 0 2 0 C1.690625 0.99 1.38125 1.98 1.0625 3 C-0.08433207 6.97731122 -0.56712356 10.88767379 -1 15 C2.96 15 6.92 15 11 15 C11 15.33 11 15.66 11 16 C7.37 16 3.74 16 0 16 C0 16.66 0 17.32 0 18 C3.3 18 6.6 18 10 18 C10 18.33 10 18.66 10 19 C7.03 19.33 4.06 19.66 1 20 C2.98 20.33 4.96 20.66 7 21 C6.67 21.66 6.34 22.32 6 23 C4.68 22.67 3.36 22.34 2 22 C2.33 23.32 2.66 24.64 3 26 C5.64 26 8.28 26 11 26 C10.67 27.98 10.34 29.96 10 32 C8.68 31.34 7.36 30.68 6 30 C6 29.34 6 28.68 6 28 C4.68 28.33 3.36 28.66 2 29 C-3.12747971 21.91309055 -4.06408091 15.63457324 -3 7 C-2.24174483 4.36764824 -1.34283376 2.40591049 0 0 Z " fill="#5C5F7A" transform="translate(4,11)"/>
<path d="M0 0 C3.20108 1.94076569 5.69419518 4.29954324 8.30078125 6.96875 C7.97078125 7.62875 7.64078125 8.28875 7.30078125 8.96875 C6.52154297 8.35386719 6.52154297 8.35386719 5.7265625 7.7265625 C-1.52918912 2.12045496 -6.47188965 0.24284816 -15.69921875 0.96875 C-18.44598077 1.48183276 -21.01431797 2.17322384 -23.69921875 2.96875 C-23.69921875 3.62875 -23.69921875 4.28875 -23.69921875 4.96875 C-26.07421875 7.59375 -26.07421875 7.59375 -28.69921875 9.96875 C-29.35921875 9.96875 -30.01921875 9.96875 -30.69921875 9.96875 C-33.2311165 16.77322521 -34.53137868 25.40751503 -31.765625 32.29296875 C-30.7998052 33.8870727 -29.75659647 35.43384686 -28.69921875 36.96875 C-29.02921875 37.62875 -29.35921875 38.28875 -29.69921875 38.96875 C-34.91667825 32.7077986 -35.68406496 26.80553835 -35.234375 18.890625 C-34.28698522 11.9477101 -31.68042627 7.76927827 -26.63671875 3.03125 C-19.23022658 -2.37348753 -8.55623063 -3.26895063 0 0 Z " fill="#D84DAA" transform="translate(34.69921875,1.03125)"/>
<path d="M0 0 C1.98 0 3.96 0 6 0 C5.67 2.31 5.34 4.62 5 7 C5.66 7 6.32 7 7 7 C7 7.66 7 8.32 7 9 C7.99 9.33 8.98 9.66 10 10 C9.01 11.485 9.01 11.485 8 13 C5.3984375 13.29296875 5.3984375 13.29296875 2.375 13.1875 C0.87066406 13.14689453 0.87066406 13.14689453 -0.6640625 13.10546875 C-1.43492188 13.07066406 -2.20578125 13.03585938 -3 13 C-2.88490339 11.58249437 -2.75746342 10.16598831 -2.625 8.75 C-2.55539063 7.96109375 -2.48578125 7.1721875 -2.4140625 6.359375 C-1.98492887 3.914123 -1.21399362 2.15163097 0 0 Z " fill="#6C4A7F" transform="translate(6,11)"/>
<path d="M0 0 C0.66 0.66 1.32 1.32 2 2 C-0.66390811 3.42709363 -3.07994365 4.2779497 -6 5 C-8.33438811 5.76883431 -10.65479838 6.57284528 -12.9765625 7.37890625 C-15 8 -15 8 -17 8 C-17 8.66 -17 9.32 -17 10 C-20.75 11.125 -20.75 11.125 -23 10 C-22.1875 8.0625 -22.1875 8.0625 -21 6 C-20.01 5.67 -19.02 5.34 -18 5 C-18 4.34 -18 3.68 -18 3 C-11.98913108 0.3285027 -6.60847935 -0.94582325 0 0 Z " fill="#697491" transform="translate(29,1)"/>
<path d="M0 0 C3.71097126 3.20492972 4.83975949 6.44044988 5.3359375 11.26953125 C5.43082261 19.87561066 5.0345121 25.61173109 -0.87109375 32.03515625 C-6.02258215 36.9334524 -6.02258215 36.9334524 -9.75390625 37.1875 C-10.86572266 37.0946875 -10.86572266 37.0946875 -12 37 C-11.67 35.68 -11.34 34.36 -11 33 C-10.2575 32.9175 -9.515 32.835 -8.75 32.75 C-5.43668651 31.84636905 -4.11884168 30.66817101 -2 28 C-2 27.01 -2 26.02 -2 25 C-0.625 23.5 -0.625 23.5 1 22 C3.8546606 17.7180091 3.49849885 14.0283362 3 9 C2.21237733 5.90414209 1.2005854 2.95858545 0 0 Z " fill="#B794B3" transform="translate(43,9)"/>
<path d="M0 0 C4.75 1.875 4.75 1.875 7 3 C7 3.66 7 4.32 7 5 C7.66 5 8.32 5 9 5 C9 5.66 9 6.32 9 7 C9.66 7.33 10.32 7.66 11 8 C13.20731737 11.31097606 13.17754126 14.09409237 13 18 C9.7 18 6.4 18 3 18 C4.32 17.34 5.64 16.68 7 16 C6.74563586 11.67580959 6.48340805 9.54538344 3.5625 6.25 C2.716875 5.5075 1.87125 4.765 1 4 C0.34 3.01 -0.32 2.02 -1 1 C-0.67 0.67 -0.34 0.34 0 0 Z " fill="#B83095" transform="translate(31,5)"/>
<path d="M0 0 C1.5 1.3125 1.5 1.3125 3 3 C3 3.99 3 4.98 3 6 C2.01 6.33 1.02 6.66 0 7 C-0.33 8.98 -0.66 10.96 -1 13 C1.475 13.99 1.475 13.99 4 15 C3.01 16.485 3.01 16.485 2 18 C1.01 17.67 0.02 17.34 -1 17 C-1.9140625 15.0390625 -1.9140625 15.0390625 -2.625 12.625 C-2.86476563 11.83351563 -3.10453125 11.04203125 -3.3515625 10.2265625 C-3.56554688 9.49179688 -3.77953125 8.75703125 -4 8 C-4.33 7.01 -4.66 6.02 -5 5 C-6.65 5.33 -8.3 5.66 -10 6 C-10.5534764 8.07553648 -11 9.84365964 -11 12 C-11.66 12 -12.32 12 -13 12 C-13.7393623 9.33829573 -14.13195116 7.51314341 -13.4375 4.8125 C-11.38564959 2.22538427 -9.12632355 1.81556266 -6 1 C-4.68 2.32 -3.36 3.64 -2 5 C-1.34 3.35 -0.68 1.7 0 0 Z " fill="#251A32" transform="translate(24,6)"/>
<path d="M0 0 C2.7443949 1.04097738 3.9787139 1.97284187 5.8125 4.3125 C7.18729237 7.4238722 7.00295901 8.80876679 6 12 C4.68 12.33 3.36 12.66 2 13 C2.66 13.556875 3.32 14.11375 4 14.6875 C6 17 6 17 6.25 19.75 C6.1675 20.4925 6.085 21.235 6 22 C5.67 21.34 5.34 20.68 5 20 C4.01 20.33 3.02 20.66 2 21 C0.92474806 18.34771188 -0.09456151 15.71631546 -1 13 C-0.01 12.34 0.98 11.68 2 11 C2.25015873 7.41642759 2.25015873 7.41642759 2 4 C1.34 4 0.68 4 0 4 C0 2.68 0 1.36 0 0 Z " fill="#251023" transform="translate(30,8)"/>
<path d="M0 0 C4.03556631 0.52821549 6.17712748 1.59326602 9.1875 4.3125 C9.86167969 4.90675781 10.53585938 5.50101563 11.23046875 6.11328125 C13.02707735 8.02887055 14.08166012 9.54623471 15 12 C14.625 15.25 14.625 15.25 14 18 C13.7525 17.38125 13.505 16.7625 13.25 16.125 C11.79371361 13.64931313 10.62187494 13.04874998 8 12 C8.99 12 9.98 12 11 12 C11 11.34 11 10.68 11 10 C9.68 9.67 8.36 9.34 7 9 C7.66 9 8.32 9 9 9 C9 8.34 9 7.68 9 7 C8.34 7 7.68 7 7 7 C7 6.34 7 5.68 7 5 C4.525 4.01 4.525 4.01 2 3 C2 2.34 2 1.68 2 1 C1.34 0.67 0.68 0.34 0 0 Z " fill="#4B4C6E" transform="translate(31,3)"/>
<path d="M0 0 C2.97 0 5.94 0 9 0 C7.25 7.75 7.25 7.75 5 10 C1.875 9.625 1.875 9.625 -1 9 C-0.67 6.03 -0.34 3.06 0 0 Z " fill="#AA6DC6" transform="translate(36,24)"/>
<path d="M0 0 C4.95 0.99 4.95 0.99 10 2 C10.33 1.34 10.66 0.68 11 0 C11 0.66 11 1.32 11 2 C13.31 2 15.62 2 18 2 C16.83984375 3.97265625 16.83984375 3.97265625 15 6 C12.44140625 6.49609375 12.44140625 6.49609375 9.5625 6.4375 C8.14130859 6.43556641 8.14130859 6.43556641 6.69140625 6.43359375 C3.61956126 5.93871016 2.18635774 5.19669513 0 3 C0 2.01 0 1.02 0 0 Z " fill="#586876" transform="translate(15,41)"/>
<path d="M0 0 C0.928125 0.20625 1.85625 0.4125 2.8125 0.625 C2.8125 4.625 2.8125 4.625 1.53515625 6.109375 C-3.07638889 9.625 -3.07638889 9.625 -4.1875 9.625 C-4.8475 6.985 -5.5075 4.345 -6.1875 1.625 C-3.1875 -0.375 -3.1875 -0.375 0 0 Z " fill="#361935" transform="translate(38.1875,33.375)"/>
<path d="M0 0 C0.33 1.32 0.66 2.64 1 4 C0.34 4.66 -0.32 5.32 -1 6 C-0.34 6.66 0.32 7.32 1 8 C-1.64 8 -4.28 8 -7 8 C-7.33 6.68 -7.66 5.36 -8 4 C-6.35 3.67 -4.7 3.34 -3 3 C-4.98 3 -6.96 3 -9 3 C-9.33 2.34 -9.66 1.68 -10 1 C-6.7 0.67 -3.4 0.34 0 0 Z " fill="#8C9AC9" transform="translate(14,29)"/>
<path d="M0 0 C0.66 0 1.32 0 2 0 C2.33 2.64 2.66 5.28 3 8 C3.99 8.33 4.98 8.66 6 9 C5.67 10.32 5.34 11.64 5 13 C1.2047869 11.50902342 -0.61042731 9.24299151 -3 6 C-2.01 5.67 -1.02 5.34 0 5 C0 3.35 0 1.7 0 0 Z " fill="#45416A" transform="translate(15,28)"/>
<path d="M0 0 C0.33 0.66 0.66 1.32 1 2 C1.66 2 2.32 2 3 2 C3.33 1.34 3.66 0.68 4 0 C4.33 0.33 4.66 0.66 5 1 C5 0.67 5 0.34 5 0 C6.98 0 8.96 0 11 0 C9.68 1.32 8.36 2.64 7 4 C7.33 4.66 7.66 5.32 8 6 C6.02 6 4.04 6 2 6 C2 5.34 2 4.68 2 4 C1.34 4 0.68 4 0 4 C-0.33 4.66 -0.66 5.32 -1 6 C-1.042721 4.33388095 -1.04063832 2.66617115 -1 1 C-0.67 0.67 -0.34 0.34 0 0 Z " fill="#CEC56E" transform="translate(15,37)"/>
<path d="M0 0 C0.66 0.33 1.32 0.66 2 1 C1.67 1.66 1.34 2.32 1 3 C2.98 3 4.96 3 7 3 C7.33 4.32 7.66 5.64 8 7 C4.7 7 1.4 7 -2 7 C-1.34 4.69 -0.68 2.38 0 0 Z " fill="#E130BA" transform="translate(5,16)"/>
<path d="M0 0 C1.32 0 2.64 0 4 0 C4 1.32 4 2.64 4 4 C4.66 4 5.32 4 6 4 C5.67 5.32 5.34 6.64 5 8 C3.68 8 2.36 8 1 8 C-0.35439668 5.29120665 -0.06501451 2.99066732 0 0 Z " fill="#6A92C5" transform="translate(20,29)"/>
<path d="M0 0 C0.66 0 1.32 0 2 0 C2.66 0.99 3.32 1.98 4 3 C4.66 3 5.32 3 6 3 C7 6 7 6 6.3125 8.125 C5 10 5 10 2.875 10.75 C1.946875 10.87375 1.946875 10.87375 1 11 C1.33 9.35 1.66 7.7 2 6 C1.34 5.67 0.68 5.34 0 5 C0 3.35 0 1.7 0 0 Z " fill="#6B417E" transform="translate(29,25)"/>
<path d="M0 0 C0 1.98 0 3.96 0 6 C-1.98 6.33 -3.96 6.66 -6 7 C-5.67 6.34 -5.34 5.68 -5 5 C-5.66 4.67 -6.32 4.34 -7 4 C-7 3.34 -7 2.68 -7 2 C-4.35261084 0.5393715 -3.10551666 0 0 0 Z " fill="#6FE2F3" transform="translate(20,16)"/>
<path d="M0 0 C0.556875 0.53625 1.11375 1.0725 1.6875 1.625 C1.3575 2.945 1.0275 4.265 0.6875 5.625 C0.3575 4.635 0.0275 3.645 -0.3125 2.625 C-1.9625 2.955 -3.6125 3.285 -5.3125 3.625 C-5.8659764 5.70053648 -6.3125 7.46865964 -6.3125 9.625 C-6.9725 9.625 -7.6325 9.625 -8.3125 9.625 C-9.06028098 6.93298849 -9.4633614 5.1530149 -8.6875 2.4375 C-6.20542189 -0.83433024 -3.66187376 -2.17733034 0 0 Z " fill="#252240" transform="translate(19.3125,8.375)"/>
<path d="M0 0 C1.2065625 0.0309375 1.2065625 0.0309375 2.4375 0.0625 C2.4375 1.0525 2.4375 2.0425 2.4375 3.0625 C1.7775 3.0625 1.1175 3.0625 0.4375 3.0625 C0.4375 3.7225 0.4375 4.3825 0.4375 5.0625 C-3.3125 6.1875 -3.3125 6.1875 -5.5625 5.0625 C-3.15007962 0.07683121 -3.15007962 0.07683121 0 0 Z " fill="#6D7E8D" transform="translate(11.5625,5.9375)"/>
<path d="M0 0 C1.98 0 3.96 0 6 0 C6 1.32 6 2.64 6 4 C2.7 4 -0.6 4 -4 4 C-2.68 3.34 -1.36 2.68 0 2 C0 1.34 0 0.68 0 0 Z " fill="#DE31B9" transform="translate(38,19)"/>
<path d="M0 0 C0.66 0 1.32 0 2 0 C2 0.66 2 1.32 2 2 C3.32 2 4.64 2 6 2 C6.66 3.98 7.32 5.96 8 8 C6.35 8 4.7 8 3 8 C0 2.25 0 2.25 0 0 Z " fill="#C73496" transform="translate(36,11)"/>
<path d="M0 0 C1.32 0.66 2.64 1.32 4 2 C4 3.32 4 4.64 4 6 C2.35 6.33 0.7 6.66 -1 7 C-1.04254356 5.00045254 -1.04080783 2.99958364 -1 1 C-0.67 0.67 -0.34 0.34 0 0 Z " fill="#AC9F64" transform="translate(30,36)"/>
<path d="M0 0 C0.99 0.33 1.98 0.66 3 1 C2.34 1.66 1.68 2.32 1 3 C1.99 3.99 2.98 4.98 4 6 C3.67 6.99 3.34 7.98 3 9 C2.01 8.67 1.02 8.34 0 8 C-0.33 7.01 -0.66 6.02 -1 5 C-1.33 6.65 -1.66 8.3 -2 10 C-3.39195915 5.82412255 -1.82323219 3.86525224 0 0 Z " fill="#6D1B54" transform="translate(6,11)"/>
<path d="M0 0 C3 2 3 2 3.6875 4.625 C3.790625 5.40875 3.89375 6.1925 4 7 C2.35 7.33 0.7 7.66 -1 8 C-1.33 8.99 -1.66 9.98 -2 11 C-2.33 9.35 -2.66 7.7 -3 6 C-1.68 5.67 -0.36 5.34 1 5 C0.67 3.35 0.34 1.7 0 0 Z " fill="#7B7B92" transform="translate(26,7)"/>
<path d="M0 0 C-0.99 0.66 -1.98 1.32 -3 2 C-3.33 2.99 -3.66 3.98 -4 5 C-4.99 5 -5.98 5 -7 5 C-7 4.34 -7 3.68 -7 3 C-7.99 3 -8.98 3 -10 3 C-10 2.34 -10 1.68 -10 1 C-6.78548731 -0.60725635 -3.56387464 -0.05748185 0 0 Z " fill="#4A4C69" transform="translate(21,3)"/>
<path d="M0 0 C4.95 0.99 4.95 0.99 10 2 C10.33 1.34 10.66 0.68 11 0 C10.67 1.32 10.34 2.64 10 4 C2.25 4.125 2.25 4.125 0 3 C0 2.01 0 1.02 0 0 Z " fill="#403448" transform="translate(15,41)"/>
<path d="M0 0 C2.64 0 5.28 0 8 0 C7.67 1.98 7.34 3.96 7 6 C5.68 5.34 4.36 4.68 3 4 C3 3.34 3 2.68 3 2 C2.01 1.67 1.02 1.34 0 1 C0 0.67 0 0.34 0 0 Z " fill="#505467" transform="translate(7,37)"/>
<path d="M0 0 C2.625 0.375 2.625 0.375 5 1 C4.319375 1.61875 4.319375 1.61875 3.625 2.25 C1.94049626 4.06408095 1.00734029 5.75285627 0 8 C-0.99 7.01 -1.98 6.02 -3 5 C-2 2 -2 2 0 0 Z " fill="#463C6A" transform="translate(22,4)"/>
<path d="M0 0 C-0.33 1.65 -0.66 3.3 -1 5 C-2.32 4.67 -3.64 4.34 -5 4 C-5.33 2.68 -5.66 1.36 -6 0 C-3 -1 -3 -1 0 0 Z " fill="#372B44" transform="translate(31,15)"/>
<path d="M0 0 C5.53846154 0.61538462 5.53846154 0.61538462 7.875 2.5625 C8.431875 3.2740625 8.431875 3.2740625 9 4 C6.36 4 3.72 4 1 4 C0.67 2.68 0.34 1.36 0 0 Z " fill="#37BEC7" transform="translate(6,33)"/>
<path d="M0 0 C0.66 1.32 1.32 2.64 2 4 C1.360625 4.28875 0.72125 4.5775 0.0625 4.875 C-2.15206079 5.82823451 -2.15206079 5.82823451 -3 8 C-3 7.34 -3 6.68 -3 6 C-5.475 5.01 -5.475 5.01 -8 4 C-7.67 3.34 -7.34 2.68 -7 2 C-6.401875 2.350625 -5.80375 2.70125 -5.1875 3.0625 C-2.89186786 4.33304698 -2.89186786 4.33304698 0 3 C0 2.01 0 1.02 0 0 Z " fill="#654779" transform="translate(31,15)"/>
<path d="M0 0 C1.0326802 2.78823655 1.04509293 3.8677274 0.0625 6.75 C-0.288125 7.4925 -0.63875 8.235 -1 9 C-2.65 7.68 -4.3 6.36 -6 5 C-5.195625 4.54625 -4.39125 4.0925 -3.5625 3.625 C-0.91143428 2.25274335 -0.91143428 2.25274335 0 0 Z " fill="#140D13" transform="translate(27,22)"/>
<path d="M0 0 C1.1446875 0.2475 1.1446875 0.2475 2.3125 0.5 C5.03596236 1.09145396 5.03596236 1.09145396 8 1 C5.64031256 3.09749995 4.45383006 3.96905704 1.25 4.1875 C0.13625 4.0946875 0.13625 4.0946875 -1 4 C-0.67 2.68 -0.34 1.36 0 0 Z " fill="#ACACB3" transform="translate(32,42)"/>
<path d="M0 0 C0.66 0.33 1.32 0.66 2 1 C1.67 1.66 1.34 2.32 1 3 C2.98 3 4.96 3 7 3 C7 3.66 7 4.32 7 5 C4.36 5 1.72 5 -1 5 C-0.67 3.35 -0.34 1.7 0 0 Z " fill="#CB209D" transform="translate(5,16)"/>
<path d="M0 0 C1.32 0 2.64 0 4 0 C4 0.99 4 1.98 4 3 C2.02 3.66 0.04 4.32 -2 5 C-1.125 1.125 -1.125 1.125 0 0 Z " fill="#A4E5EA" transform="translate(15,10)"/>
<path d="M0 0 C0 1.65 0 3.3 0 5 C-0.99 5 -1.98 5 -3 5 C-2.67 4.34 -2.34 3.68 -2 3 C-2.99 3.33 -3.98 3.66 -5 4 C-5 3.01 -5 2.02 -5 1 C-1.125 0 -1.125 0 0 0 Z " fill="#578ECF" transform="translate(19,22)"/>
<path d="M0 0 C0.66 0.33 1.32 0.66 2 1 C1.67 2.65 1.34 4.3 1 6 C0.01 6.33 -0.98 6.66 -2 7 C-2 5.68 -2 4.36 -2 3 C-1.34 3 -0.68 3 0 3 C0 2.01 0 1.02 0 0 Z " fill="#1A0C17" transform="translate(35,14)"/>
<path d="M0 0 C1.98 0 3.96 0 6 0 C4.68 1.32 3.36 2.64 2 4 C2.33 4.66 2.66 5.32 3 6 C2.01 6 1.02 6 0 6 C0 4.02 0 2.04 0 0 Z " fill="#DBD573" transform="translate(20,37)"/>
</svg>
